<svg width="512" height="512" viewBox="0 0 512 512" fill="none" xmlns="http://www.w3.org/2000/svg">
<path d="M352 240H272V160C272 151.156 264.844 144 256 144C247.156 144 240 151.156 240 160V240H160C151.156 240 144 247.156 144 256C144 264.844 151.156 272 160 272H240V352C240 360.844 247.156 368 256 368C264.844 368 272 360.844 272 352V272H352C360.844 272 368 264.844 368 256C368 247.156 360.844 240 352 240ZM256 16C123.451 16 16 123.451 16 256C16 388.549 123.451 496 256 496C388.549 496 496 388.549 496 256C496 123.451 388.549 16 256 16ZM256 464C141.309 464 48 370.691 48 256C48 141.309 141.309 48 256 48C370.691 48 464 141.309 464 256C464 370.691 370.691 464 256 464Z" fill="#8490C2"/>
</svg>
