<svg width="512" height="512" viewBox="0 0 512 512" fill="none" xmlns="http://www.w3.org/2000/svg">
<path d="M256 16C123.451 16 16 123.451 16 256C16 388.549 123.451 496 256 496C388.549 496 496 388.549 496 256C496 123.451 388.549 16 256 16ZM256 464C141.309 464 48 370.691 48 256C48 141.309 141.309 48 256 48C370.691 48 464 141.309 464 256C464 370.691 370.691 464 256 464ZM331.312 180.688C325.062 174.438 314.937 174.438 308.688 180.688L256 233.375L203.312 180.688C197.062 174.438 186.937 174.438 180.688 180.688C174.439 186.938 174.438 197.063 180.688 203.312L233.375 256L180.688 308.688C174.438 314.938 174.438 325.063 180.688 331.312C186.934 337.559 197.059 337.566 203.312 331.312L256 278.625L308.688 331.312C314.934 337.559 325.059 337.566 331.312 331.312C337.562 325.062 337.562 314.937 331.312 308.688L278.625 256L331.312 203.312C337.562 197.062 337.562 186.938 331.312 180.688Z" fill="#8490C2"/>
</svg>
