<svg width="512" height="512" viewBox="0 0 512 512" fill="none" xmlns="http://www.w3.org/2000/svg">
<path d="M256 288C216.281 288 153.434 311.75 144.473 362.5C142.656 373.375 146.531 384.75 154.766 392C163.001 399.25 174.746 401.875 185.402 398.625C214.707 389.625 241.832 384 256 384C270.168 384 297.293 389.625 326.598 398.625C334.348 401 346.699 401.25 357.234 392C365.348 384.75 369.344 373.375 367.527 362.5C358.566 311.75 295.719 288 256 288ZM256 352C238.32 352 209.137 357.75 175.957 368C181.164 338.25 226.09 320 256 320C285.91 320 330.836 338.25 336.043 368C302.863 357.75 273.68 352 256 352ZM256 16C123.451 16 16 123.451 16 256C16 388.549 123.451 496 256 496C388.549 496 496 388.549 496 256C496 123.451 388.549 16 256 16ZM256 464C141.309 464 48 370.691 48 256C48 141.309 141.309 48 256 48C370.691 48 464 141.309 464 256C464 370.691 370.691 464 256 464ZM175.955 232C189.293 232 200 221.312 200 208C200 194.688 189.293 184 175.955 184C162.707 184 152 194.688 152 208C152 221.312 162.707 232 175.955 232ZM335.955 232C349.293 232 360 221.312 360 208C360 194.688 349.293 184 335.955 184C322.707 184 312 194.688 312 208C312 221.312 322.707 232 335.955 232Z" fill="#8490C2"/>
</svg>
