<svg width="512" height="512" viewBox="0 0 512 512" fill="none" xmlns="http://www.w3.org/2000/svg">
<g clip-path="url(#clip0_37_221)">
<path d="M448 128H64C28.654 128 0 156.654 0 192V448C0 483.346 28.654 512 64 512H448C483.348 512 512 483.346 512 448V192C512 156.654 483.348 128 448 128ZM206.223 480H113.777V416C113.777 398.355 128.133 384 145.777 384H174.223C191.867 384 206.223 398.355 206.223 416V480ZM398.223 480H305.777V416C305.777 398.355 320.133 384 337.777 384H366.223C383.867 384 398.223 398.355 398.223 416V480ZM480 448C480 465.645 465.645 480 448 480H430.223V416C430.223 380.654 401.568 352 366.223 352H337.777C302.432 352 273.777 380.654 273.777 416V480H238.223V416C238.223 380.654 209.568 352 174.223 352H145.777C110.432 352 81.777 380.654 81.777 416V480H64C46.355 480 32 465.645 32 448V192C32 174.355 46.355 160 64 160H448C465.645 160 480 174.355 480 192V448ZM160 208C129.055 208.115 104 233.135 104 264C104 294.865 129.055 319.883 160 320C190.945 319.883 216 294.865 216 264C216 233.135 190.945 208.115 160 208ZM160.121 288C146.82 287.949 136 277.184 136 264C136 250.855 146.756 240.113 160 240C173.246 240.113 184 250.855 184 264C184 277.184 173.18 287.949 160.121 288ZM352 208C321.055 208.115 296 233.135 296 264C296 294.865 321.055 319.883 352 320C382.945 319.883 408 294.865 408 264C408 233.135 382.945 208.115 352 208ZM352.121 288C338.82 287.949 328 277.184 328 264C328 250.855 338.756 240.113 352 240C365.246 240.113 376 250.855 376 264C376 277.184 365.18 287.949 352.121 288ZM91.312 91.3125L144 38.6255L196.688 91.3125C199.812 94.4385 203.906 96.0005 208 96.0005C212.094 96.0005 216.188 94.4385 219.312 91.3125C225.562 85.0625 225.562 74.9375 219.312 68.6885L155.312 4.68848C149.062 -1.56152 138.937 -1.56152 132.688 4.68848L68.688 68.6885C62.438 74.9385 62.438 85.0635 68.688 91.3125C74.938 97.5615 85.062 97.5625 91.312 91.3125ZM356.688 91.3125C359.812 94.4385 363.906 96.0005 368 96.0005C372.094 96.0005 376.188 94.4385 379.312 91.3125L443.312 27.3125C449.562 21.0625 449.562 10.9375 443.312 4.68848C437.062 -1.56052 426.937 -1.56152 420.688 4.68848L368 57.3755L315.312 4.68848C309.062 -1.56152 298.937 -1.56152 292.688 4.68848C286.439 10.9385 286.438 21.0635 292.688 27.3125L356.688 91.3125Z" fill="#00ffe7"/>
</g>
<defs>
<clipPath id="clip0_37_221">
<rect width="512" height="512" fill="white"/>
</clipPath>
</defs>
</svg>
