<svg width="512" height="512" viewBox="0 0 512 512" fill="none" xmlns="http://www.w3.org/2000/svg">
<path d="M507.312 484.688L365.85 343.227C397.041 306.848 416 259.676 416 208C416 93.125 322.875 0 208 0C93.125 0 0 93.125 0 208C0 322.875 93.125 416 208 416C259.676 416 306.848 397.039 343.225 365.852L484.687 507.312C487.812 510.438 491.906 512 496 512C500.094 512 504.188 510.438 507.312 507.312C513.562 501.062 513.562 490.938 507.312 484.688ZM208 384C110.953 384 32 305.047 32 208C32 110.953 110.953 32 208 32C305.047 32 384 110.953 384 208C384 305.047 305.047 384 208 384Z" fill="#8490C2"/>
</svg>
