<svg xmlns="http://www.w3.org/2000/svg" xmlns:xlink="http://www.w3.org/1999/xlink" width="1600" height="1200" viewBox="0 0 1600 1200">
  <defs>
    <clipPath id="clip-path">
      <rect width="1600" height="1200" fill="none"/>
    </clipPath>
    <clipPath id="clip-Inn">
      <rect width="1600" height="1200"/>
    </clipPath>
  </defs>
  <g id="Inn" clip-path="url(#clip-Inn)">
    <g id="Component_9_1" data-name="Component 9 – 1" transform="translate(1600 1200) rotate(180)" clip-path="url(#clip-path)">
      <rect id="Background" width="1600" height="1200" transform="translate(0)" fill="none"/>
      <g id="Inn-2" data-name="Inn" transform="translate(0)">
        <path id="Shape" d="M217.461,109.037A108.693,108.693,0,0,0,8.277,67.311,109.29,109.29,0,0,0,0,109.037H217.461Z" transform="translate(0 213.949)" fill="#58a3ff"/>
        <path id="Shape-2" data-name="Shape" d="M0,217.485a109.269,109.269,0,0,0,41.722-8.277,109.051,109.051,0,0,0,35.37-23.573,108.734,108.734,0,0,0,23.634-35.279,108.483,108.483,0,0,0,0-83.228A108.731,108.731,0,0,0,77.092,31.85,109.049,109.049,0,0,0,41.722,8.278,109.268,109.268,0,0,0,0,0V217.485Z" transform="translate(0 0.589)" fill="#fb8998"/>
        <path id="Shape-3" data-name="Shape" d="M109.025,109.037a109,109,0,0,1-41.722-8.3A109.04,109.04,0,0,1,31.933,77.1,109.054,109.054,0,0,1,8.3,41.726,109.034,109.034,0,0,1,0,0H109.025Z" transform="translate(130.241 479.764)" fill="#ff66d8"/>
        <path id="Shape-4" data-name="Shape" d="M0,0A109,109,0,0,1,41.722,8.3a109.04,109.04,0,0,1,35.37,23.637,109.054,109.054,0,0,1,23.634,35.374,109.034,109.034,0,0,1,8.3,41.726H0Z" transform="translate(0 348.33)" fill="#fb8998"/>
        <path id="Shape-5" data-name="Shape" d="M0,109.037A109.028,109.028,0,0,1,109.025,0V109.037Z" transform="translate(130.241 1.179)" fill="#f5d800"/>
        <path id="Shape-6" data-name="Shape" d="M0,54.519A54.516,54.516,0,0,1,54.513,0h54.513V109.037H54.513A54.516,54.516,0,0,1,0,54.519Z" transform="translate(0 479.764)" fill="#f5d800"/>
        <path id="Shape-7" data-name="Shape" d="M0,54.519a54.516,54.516,0,0,0,54.513,54.519h54.513V0H54.513A54.516,54.516,0,0,0,0,54.519Z" transform="translate(130.241 348.919)" fill="#7fdc8a"/>
        <ellipse id="Shape-8" data-name="Shape" cx="43.315" cy="43.32" rx="43.315" ry="43.32" transform="translate(152.635 131.434)" fill="#f5d800"/>
        <path id="Shape-9" data-name="Shape" d="M109.025,109.037a109.037,109.037,0,0,0-8.3-41.727A109.045,109.045,0,0,0,77.092,31.936,109.031,109.031,0,0,0,41.722,8.3,109.013,109.013,0,0,0,0,0V109.037Z" transform="translate(1478.618 109.037)" fill="#58a3ff"/>
        <path id="Shape-10" data-name="Shape" d="M0,109.037a53.957,53.957,0,0,0,20.748-4.15,54.2,54.2,0,0,0,17.59-11.818A54.541,54.541,0,0,0,50.091,75.382a54.781,54.781,0,0,0,4.127-20.863,54.781,54.781,0,0,0-4.127-20.863A54.54,54.54,0,0,0,38.338,15.968,54.2,54.2,0,0,0,20.748,4.15,53.959,53.959,0,0,0,0,0V109.037Z" transform="translate(1239.351 1.179)" fill="#58a3ff"/>
        <path id="Shape-11" data-name="Shape" d="M109.025,0a108.743,108.743,0,1,0,0,217.485V0Z" transform="translate(1348.377 0.589)" fill="#fb8998"/>
        <path id="Shape-12" data-name="Shape" d="M0,109.037A109.028,109.028,0,0,1,109.025,0V109.037Z" transform="translate(1348.377 370.138)" fill="#ff66d8"/>
        <path id="Shape-13" data-name="Shape" d="M0,217.485a109.257,109.257,0,0,0,41.722-8.277,109.06,109.06,0,0,0,35.37-23.573,108.74,108.74,0,0,0,23.634-35.278,108.481,108.481,0,0,0,0-83.227A108.74,108.74,0,0,0,77.092,31.851,109.06,109.06,0,0,0,41.722,8.277,109.257,109.257,0,0,0,0,0V217.485Z" transform="translate(1478.618 370.138)" fill="#58a3ff"/>
        <path id="Shape-14" data-name="Shape" d="M0,0A109.261,109.261,0,0,1,41.722,8.277a109.052,109.052,0,0,1,35.37,23.573,108.727,108.727,0,0,1,23.634,35.278,108.481,108.481,0,0,1,0,83.227,108.73,108.73,0,0,1-23.634,35.278,109.055,109.055,0,0,1-35.37,23.573A109.261,109.261,0,0,1,0,217.485V0Z" transform="translate(1239.351 240.472)" fill="#a157ff"/>
        <path id="Shape-15" data-name="Shape" d="M0,0A109.3,109.3,0,0,0,8.277,41.726,109.065,109.065,0,0,0,31.847,77.1a108.72,108.72,0,0,0,35.275,23.637,108.448,108.448,0,0,0,83.218,0A108.726,108.726,0,0,0,185.614,77.1a109.074,109.074,0,0,0,23.571-35.374A109.29,109.29,0,0,0,217.461,0H0Z" transform="translate(1369.592 239.882)" fill="#58a3ff"/>
        <path id="Shape-16" data-name="Shape" d="M109.025,54.519a54.516,54.516,0,0,1-54.513,54.519H0V0H54.513a54.516,54.516,0,0,1,54.513,54.519Z" transform="translate(1239.351 479.764)" fill="#fb8998"/>
        <ellipse id="Shape-17" data-name="Shape" cx="43.315" cy="43.32" rx="43.315" ry="43.32" transform="translate(1478.618 1.179)" fill="#f5d800"/>
        <ellipse id="Shape-18" data-name="Shape" cx="43.315" cy="43.32" rx="43.315" ry="43.32" transform="translate(1239.351 131.434)" fill="#fb8998"/>
        <ellipse id="Shape-19" data-name="Shape" cx="43.315" cy="43.32" rx="43.315" ry="43.32" transform="translate(1369.592 502.161)" fill="#f5d800"/>
        <path id="Shape-20" data-name="Shape" d="M109.025,0a109.037,109.037,0,0,1-8.3,41.727A109.045,109.045,0,0,1,77.092,77.1a109.031,109.031,0,0,1-35.37,23.636A109.013,109.013,0,0,1,0,109.037V0Z" transform="translate(499.748 370.138)" fill="#f5d800"/>
        <path id="Shape-21" data-name="Shape" d="M54.218,109.037A54.071,54.071,0,0,1,15.879,93.069,54.6,54.6,0,0,1,33.47,4.15,53.955,53.955,0,0,1,54.218,0Z" transform="translate(902.847 391.945)" fill="#ff66d8"/>
        <path id="Shape-22" data-name="Shape" d="M54.218,109.037A54.074,54.074,0,0,1,15.879,93.07,54.6,54.6,0,0,1,33.47,4.15,53.972,53.972,0,0,1,54.218,0Z" transform="translate(663.58)" fill="#fb8998"/>
        <path id="Shape-23" data-name="Shape" d="M0,0A53.957,53.957,0,0,1,20.748,4.15a54.2,54.2,0,0,1,17.59,11.818A54.541,54.541,0,0,1,50.091,33.655a54.781,54.781,0,0,1,4.127,20.863,54.781,54.781,0,0,1-4.127,20.863A54.54,54.54,0,0,1,38.338,93.069a54.2,54.2,0,0,1-17.59,11.818A53.959,53.959,0,0,1,0,109.037Z" transform="translate(260.482 478.585)" fill="#58a3ff"/>
        <path id="Shape-24" data-name="Shape" d="M109.025,217.485A108.743,108.743,0,1,1,109.025,0Z" transform="translate(369.507 370.138)" fill="#58a3ff"/>
        <path id="Shape-25" data-name="Shape" d="M0,0H109.025V109.037a109,109,0,0,1-41.722-8.3A109.034,109.034,0,0,1,31.933,77.1,109.045,109.045,0,0,1,8.3,41.726,109.046,109.046,0,0,1,0,0Z" transform="translate(369.507 109.037)" fill="#fb8998"/>
        <path id="Shape-26" data-name="Shape" d="M0,0A109.257,109.257,0,0,1,41.722,8.277a109.06,109.06,0,0,1,35.37,23.573,108.74,108.74,0,0,1,23.634,35.278,108.481,108.481,0,0,1,0,83.227,108.74,108.74,0,0,1-23.634,35.278,109.06,109.06,0,0,1-35.37,23.573A109.257,109.257,0,0,1,0,217.485Z" transform="translate(499.748 0.589)" fill="#f5d800"/>
        <path id="Shape-27" data-name="Shape" d="M0,109.037A108.693,108.693,0,0,1,209.185,67.31a109.294,109.294,0,0,1,8.277,41.727Z" transform="translate(739.603 478.585)" fill="#7fdc8a"/>
        <path id="Shape-28" data-name="Shape" d="M217.461,0a109.29,109.29,0,0,1-8.277,41.726A109.074,109.074,0,0,1,185.614,77.1a108.726,108.726,0,0,1-35.274,23.637,108.447,108.447,0,0,1-83.218,0A108.726,108.726,0,0,1,31.847,77.1,109.074,109.074,0,0,1,8.277,41.726,109.29,109.29,0,0,1,0,0Z" transform="translate(978.28 265.226)" fill="#f5d800"/>
        <path id="Shape-29" data-name="Shape" d="M0,0A109.269,109.269,0,0,1,41.722,8.277,109.051,109.051,0,0,1,77.092,31.85a108.734,108.734,0,0,1,23.634,35.279,108.483,108.483,0,0,1,0,83.228,108.732,108.732,0,0,1-23.634,35.279,109.049,109.049,0,0,1-35.37,23.573A109.268,109.268,0,0,1,0,217.485Z" transform="translate(978.28 370.138)" fill="#fb8998"/>
        <path id="Shape-30" data-name="Shape" d="M0,109.037A108.693,108.693,0,0,1,209.185,67.311a109.29,109.29,0,0,1,8.277,41.726Z" transform="translate(869.844 130.255)" fill="#7fdc8a"/>
        <path id="Shape-31" data-name="Shape" d="M217.461,0a109.29,109.29,0,0,1-8.277,41.726A109.074,109.074,0,0,1,185.614,77.1a108.726,108.726,0,0,1-35.274,23.637,108.447,108.447,0,0,1-83.218,0A108.726,108.726,0,0,1,31.847,77.1,109.074,109.074,0,0,1,8.277,41.726,109.29,109.29,0,0,1,0,0Z" transform="translate(739.603)" fill="#f5d800"/>
        <path id="Shape-32" data-name="Shape" d="M109.025,217.485A108.743,108.743,0,1,1,109.025,0Z" transform="translate(608.773 130.255)" fill="#58a3ff"/>
        <path id="Shape-33" data-name="Shape" d="M0,217.485V0A109.261,109.261,0,0,1,41.722,8.277a109.055,109.055,0,0,1,35.37,23.573,108.73,108.73,0,0,1,23.634,35.278,108.481,108.481,0,0,1,0,83.227,108.727,108.727,0,0,1-23.634,35.278,109.052,109.052,0,0,1-35.37,23.573A109.261,109.261,0,0,1,0,217.485Z" transform="translate(260.482 130.255)" fill="#f5d800"/>
        <path id="Shape-34" data-name="Shape" d="M0,109.037A108.693,108.693,0,0,1,209.185,67.311a109.29,109.29,0,0,1,8.277,41.726Z" transform="translate(390.723 239.293)" fill="#fb8998"/>
        <path id="Shape-35" data-name="Shape" d="M217.461,0a109.294,109.294,0,0,1-8.277,41.727A109.065,109.065,0,0,1,185.614,77.1a108.717,108.717,0,0,1-35.274,23.636,108.447,108.447,0,0,1-83.218,0A108.717,108.717,0,0,1,31.847,77.1,109.066,109.066,0,0,1,8.277,41.727,109.294,109.294,0,0,1,0,0Z" transform="translate(630.578 370.138)" fill="#fb8998"/>
        <path id="Shape-36" data-name="Shape" d="M109.025,109.037H0V0A109,109,0,0,1,41.722,8.3a109.04,109.04,0,0,1,35.37,23.637,109.054,109.054,0,0,1,23.634,35.374A109.034,109.034,0,0,1,109.025,109.037Z" transform="translate(739.014 130.255)" fill="#ff66d8"/>
        <path id="Shape-37" data-name="Shape" d="M109.025,0V109.037H0A109.028,109.028,0,0,1,109.025,0Z" transform="translate(1108.521)" fill="#ff66d8"/>
        <path id="Shape-38" data-name="Shape" d="M0,0H109.025V109.037a109,109,0,0,1-41.722-8.3A109.04,109.04,0,0,1,31.933,77.1,109.054,109.054,0,0,1,8.3,41.726,109.034,109.034,0,0,1,0,0Z" transform="translate(848.039 261.1)" fill="#fb8998"/>
        <path id="Shape-39" data-name="Shape" d="M0,0H109.025V109.037a109.012,109.012,0,0,1-41.722-8.3A109.029,109.029,0,0,1,31.933,77.1,109.045,109.045,0,0,1,8.3,41.727,109.037,109.037,0,0,1,0,0Z" transform="translate(1108.521 478.585)" fill="#a157ff"/>
        <path id="Shape-40" data-name="Shape" d="M54.513,0a54.516,54.516,0,0,1,54.513,54.519v54.519H0V54.519A54.516,54.516,0,0,1,54.513,0Z" transform="translate(608.773 478.585)" fill="#a157ff"/>
        <path id="Shape-41" data-name="Shape" d="M109.025,54.519a54.516,54.516,0,0,1-54.513,54.519H0V0H54.513A54.516,54.516,0,0,1,109.025,54.519Z" transform="translate(260.482)" fill="#7fdc8a"/>
        <path id="Shape-42" data-name="Shape" d="M0,54.519A54.516,54.516,0,0,1,54.513,0h54.513V109.037H54.513A54.516,54.516,0,0,1,0,54.519Z" transform="translate(978.28)" fill="#7fdc8a"/>
        <path id="Shape-43" data-name="Shape" d="M0,54.519A54.516,54.516,0,0,1,54.513,0h54.513V109.037H54.513A54.516,54.516,0,0,1,0,54.519Z" transform="translate(1108.521 130.255)" fill="#58a3ff"/>
        <path id="Shape-44" data-name="Shape" d="M43.315,0A43.32,43.32,0,1,1,0,43.32,43.318,43.318,0,0,1,43.315,0Z" transform="translate(499.748 500.982)" fill="#fb8998"/>
        <path id="Shape-45" data-name="Shape" d="M43.315,0A43.32,43.32,0,1,1,0,43.32,43.318,43.318,0,0,1,43.315,0Z" transform="translate(260.482 370.727)" fill="#a157ff"/>
        <path id="Shape-46" data-name="Shape" d="M43.315,0A43.32,43.32,0,1,1,0,43.32,43.318,43.318,0,0,1,43.315,0Z" transform="translate(390.723)" fill="#ff66d8"/>
        <path id="Shape-47" data-name="Shape" d="M43.315,0A43.32,43.32,0,1,1,0,43.32,43.318,43.318,0,0,1,43.315,0Z" transform="translate(739.603 261.69)" fill="#58a3ff"/>
        <path id="Shape-48" data-name="Shape" d="M43.315,0A43.32,43.32,0,1,1,0,43.32,43.318,43.318,0,0,1,43.315,0Z" transform="translate(1130.916 370.727)" fill="#f5d800"/>
        <path id="Shape-49" data-name="Shape" d="M109.025,0a109.037,109.037,0,0,1-8.3,41.727A109.045,109.045,0,0,1,77.092,77.1a109.031,109.031,0,0,1-35.37,23.636A109.013,109.013,0,0,1,0,109.037V0Z" transform="translate(239.266 982.515)" fill="#58a3ff"/>
        <path id="Shape-50" data-name="Shape" d="M54.218,109.037A54.071,54.071,0,0,1,15.879,93.069,54.6,54.6,0,0,1,33.47,4.15,53.955,53.955,0,0,1,54.218,0Z" transform="translate(642.365 1004.322)" fill="#f5d800"/>
        <path id="Shape-51" data-name="Shape" d="M54.218,109.037A54.074,54.074,0,0,1,15.879,93.07,54.6,54.6,0,0,1,33.47,4.15,53.972,53.972,0,0,1,54.218,0Z" transform="translate(403.099 612.377)" fill="#ff66d8"/>
        <path id="Shape-52" data-name="Shape" d="M0,0A53.957,53.957,0,0,1,20.748,4.15a54.2,54.2,0,0,1,17.59,11.818A54.541,54.541,0,0,1,50.091,33.655a54.781,54.781,0,0,1,4.127,20.863,54.781,54.781,0,0,1-4.127,20.863A54.54,54.54,0,0,1,38.338,93.069a54.2,54.2,0,0,1-17.59,11.818A53.959,53.959,0,0,1,0,109.037Z" transform="translate(0 1090.963)" fill="#ff66d8"/>
        <path id="Shape-53" data-name="Shape" d="M109.025,217.485A108.743,108.743,0,1,1,109.025,0Z" transform="translate(109.025 982.515)" fill="#f5d800"/>
        <path id="Shape-54" data-name="Shape" d="M0,0H109.025V109.037a109,109,0,0,1-41.722-8.3A109.034,109.034,0,0,1,31.933,77.1,109.045,109.045,0,0,1,8.3,41.726,109.046,109.046,0,0,1,0,0Z" transform="translate(109.025 720.825)" fill="#fb8998"/>
        <path id="Shape-55" data-name="Shape" d="M0,0A109.257,109.257,0,0,1,41.722,8.277a109.06,109.06,0,0,1,35.37,23.573,108.74,108.74,0,0,1,23.634,35.278,108.481,108.481,0,0,1,0,83.227,108.74,108.74,0,0,1-23.634,35.278,109.06,109.06,0,0,1-35.37,23.573A109.257,109.257,0,0,1,0,217.485Z" transform="translate(239.266 612.377)" fill="#fb8998"/>
        <path id="Shape-56" data-name="Shape" d="M0,109.037A108.693,108.693,0,0,1,209.185,67.31a109.294,109.294,0,0,1,8.277,41.727Z" transform="translate(479.122 1090.963)" fill="#58a3ff"/>
        <path id="Shape-57" data-name="Shape" d="M217.461,0a109.29,109.29,0,0,1-8.277,41.726A109.074,109.074,0,0,1,185.614,77.1a108.726,108.726,0,0,1-35.274,23.637,108.447,108.447,0,0,1-83.218,0A108.726,108.726,0,0,1,31.847,77.1,109.074,109.074,0,0,1,8.277,41.726,109.29,109.29,0,0,1,0,0Z" transform="translate(717.798 878.193)" fill="#f5d800"/>
        <path id="Shape-58" data-name="Shape" d="M0,0A109.269,109.269,0,0,1,41.722,8.277,109.051,109.051,0,0,1,77.092,31.85a108.734,108.734,0,0,1,23.634,35.279,108.483,108.483,0,0,1,0,83.228,108.732,108.732,0,0,1-23.634,35.279,109.049,109.049,0,0,1-35.37,23.573A109.268,109.268,0,0,1,0,217.485Z" transform="translate(717.798 982.515)" fill="#7fdc8a"/>
        <path id="Shape-59" data-name="Shape" d="M0,109.037A108.693,108.693,0,0,1,209.185,67.311a109.29,109.29,0,0,1,8.277,41.726Z" transform="translate(609.362 742.633)" fill="#fb8998"/>
        <path id="Shape-60" data-name="Shape" d="M217.461,0a109.29,109.29,0,0,1-8.277,41.726A109.074,109.074,0,0,1,185.614,77.1a108.726,108.726,0,0,1-35.274,23.637,108.447,108.447,0,0,1-83.218,0A108.726,108.726,0,0,1,31.847,77.1,109.074,109.074,0,0,1,8.277,41.726,109.29,109.29,0,0,1,0,0Z" transform="translate(479.122 612.377)" fill="#fb8998"/>
        <path id="Shape-61" data-name="Shape" d="M109.025,217.485A108.743,108.743,0,1,1,109.025,0Z" transform="translate(348.291 743.222)" fill="#58a3ff"/>
        <path id="Shape-62" data-name="Shape" d="M0,217.485V0A109.261,109.261,0,0,1,41.722,8.277a109.055,109.055,0,0,1,35.37,23.573,108.73,108.73,0,0,1,23.634,35.278,108.481,108.481,0,0,1,0,83.227,108.727,108.727,0,0,1-23.634,35.278,109.052,109.052,0,0,1-35.37,23.573A109.261,109.261,0,0,1,0,217.485Z" transform="translate(0 743.222)" fill="#fb8998"/>
        <path id="Shape-63" data-name="Shape" d="M0,109.037A108.693,108.693,0,0,1,209.185,67.311a109.29,109.29,0,0,1,8.277,41.726Z" transform="translate(130.241 851.67)" fill="#7fdc8a"/>
        <path id="Shape-64" data-name="Shape" d="M217.461,0a109.294,109.294,0,0,1-8.277,41.727A109.065,109.065,0,0,1,185.614,77.1a108.717,108.717,0,0,1-35.274,23.636,108.447,108.447,0,0,1-83.218,0A108.717,108.717,0,0,1,31.847,77.1,109.066,109.066,0,0,1,8.277,41.727,109.294,109.294,0,0,1,0,0Z" transform="translate(370.096 982.515)" fill="#fb8998"/>
        <path id="Shape-65" data-name="Shape" d="M109.025,109.037H0V0A109,109,0,0,1,41.722,8.3a109.04,109.04,0,0,1,35.37,23.637,109.054,109.054,0,0,1,23.634,35.374A109.034,109.034,0,0,1,109.025,109.037Z" transform="translate(478.532 742.633)" fill="#58a3ff"/>
        <path id="Shape-66" data-name="Shape" d="M109.025,0V109.037H0A109.028,109.028,0,0,1,109.025,0Z" transform="translate(848.039 612.377)" fill="#ff66d8"/>
        <path id="Shape-67" data-name="Shape" d="M0,0H109.025V109.037a109,109,0,0,1-41.722-8.3A109.04,109.04,0,0,1,31.933,77.1,109.054,109.054,0,0,1,8.3,41.726,109.034,109.034,0,0,1,0,0Z" transform="translate(587.557 873.477)" fill="#f5d800"/>
        <path id="Shape-68" data-name="Shape" d="M0,0H109.025V109.037a109.012,109.012,0,0,1-41.722-8.3A109.029,109.029,0,0,1,31.933,77.1,109.045,109.045,0,0,1,8.3,41.727,109.037,109.037,0,0,1,0,0Z" transform="translate(848.039 1090.963)" fill="#fb8998"/>
        <path id="Shape-69" data-name="Shape" d="M54.513,0a54.516,54.516,0,0,1,54.513,54.519v54.519H0V54.519A54.516,54.516,0,0,1,54.513,0Z" transform="translate(348.291 1090.963)" fill="#7fdc8a"/>
        <path id="Shape-70" data-name="Shape" d="M109.025,54.519a54.516,54.516,0,0,1-54.513,54.519H0V0H54.513A54.516,54.516,0,0,1,109.025,54.519Z" transform="translate(0 612.377)" fill="#7fdc8a"/>
        <path id="Shape-71" data-name="Shape" d="M0,54.519A54.516,54.516,0,0,1,54.513,0h54.513V109.037H54.513A54.516,54.516,0,0,1,0,54.519Z" transform="translate(717.798 612.377)" fill="#f5d800"/>
        <path id="Shape-72" data-name="Shape" d="M0,54.519A54.516,54.516,0,0,1,54.513,0h54.513V109.037H54.513A54.516,54.516,0,0,1,0,54.519Z" transform="translate(848.039 742.633)" fill="#a157ff"/>
        <path id="Shape-73" data-name="Shape" d="M43.315,0A43.32,43.32,0,1,1,0,43.32,43.318,43.318,0,0,1,43.315,0Z" transform="translate(239.266 1113.359)" fill="#a157ff"/>
        <path id="Shape-74" data-name="Shape" d="M43.315,0A43.32,43.32,0,1,1,0,43.32,43.318,43.318,0,0,1,43.315,0Z" transform="translate(0 983.104)" fill="#7fdc8a"/>
        <path id="Shape-75" data-name="Shape" d="M43.315,0A43.32,43.32,0,1,1,0,43.32,43.318,43.318,0,0,1,43.315,0Z" transform="translate(130.241 612.377)" fill="#ff66d8"/>
        <path id="Shape-76" data-name="Shape" d="M43.315,0A43.32,43.32,0,1,1,0,43.32,43.318,43.318,0,0,1,43.315,0Z" transform="translate(479.122 874.067)" fill="#ff66d8"/>
        <path id="Shape-77" data-name="Shape" d="M43.315,0A43.32,43.32,0,1,1,0,43.32,43.318,43.318,0,0,1,43.315,0Z" transform="translate(870.434 983.104)" fill="#ff66d8"/>
        <path id="Shape-78" data-name="Shape" d="M0,0A53.955,53.955,0,0,1,20.748,4.15a54.222,54.222,0,0,1,17.59,11.818A54.543,54.543,0,0,1,50.091,33.655a54.8,54.8,0,0,1,4.127,20.863,54.8,54.8,0,0,1-4.127,20.863A54.543,54.543,0,0,1,38.339,93.069a54.222,54.222,0,0,1-17.59,11.818A53.955,53.955,0,0,1,0,109.037Z" transform="translate(1241.119 699.018)" fill="#ff66d8"/>
        <path id="Shape-79" data-name="Shape" d="M0,0A53.972,53.972,0,0,1,20.748,4.15a54.22,54.22,0,0,1,17.59,11.817A54.561,54.561,0,0,1,50.091,33.655a54.8,54.8,0,0,1,4.127,20.863,54.8,54.8,0,0,1-4.127,20.863A54.561,54.561,0,0,1,38.339,93.07a54.22,54.22,0,0,1-17.59,11.817A53.972,53.972,0,0,1,0,109.037Z" transform="translate(1480.975 1090.963)" fill="#ff66d8"/>
        <path id="Shape-80" data-name="Shape" d="M217.461,0a109.294,109.294,0,0,1-8.277,41.727A109.065,109.065,0,0,1,185.614,77.1a108.717,108.717,0,0,1-35.274,23.636,108.447,108.447,0,0,1-83.218,0A108.717,108.717,0,0,1,31.847,77.1,109.066,109.066,0,0,1,8.277,41.727,109.294,109.294,0,0,1,0,0Z" transform="translate(1241.119 612.377)" fill="#58a3ff"/>
        <path id="Shape-81" data-name="Shape" d="M0,109.037A108.693,108.693,0,0,1,209.185,67.311a109.29,109.29,0,0,1,8.277,41.726Z" transform="translate(1002.443 825.737)" fill="#58a3ff"/>
        <path id="Shape-82" data-name="Shape" d="M109.025,217.485A108.743,108.743,0,1,1,109.025,0Z" transform="translate(1110.878 612.377)" fill="#7fdc8a"/>
        <path id="Shape-83" data-name="Shape" d="M217.461,0a109.29,109.29,0,0,1-8.277,41.726A109.074,109.074,0,0,1,185.614,77.1a108.726,108.726,0,0,1-35.274,23.637,108.447,108.447,0,0,1-83.218,0A108.726,108.726,0,0,1,31.847,77.1,109.074,109.074,0,0,1,8.277,41.726,109.29,109.29,0,0,1,0,0Z" transform="translate(1110.878 960.707)" fill="#fb8998"/>
        <path id="Shape-84" data-name="Shape" d="M0,109.037A108.693,108.693,0,0,1,209.185,67.311a109.29,109.29,0,0,1,8.277,41.726Z" transform="translate(1241.119 1090.963)" fill="#f5d800"/>
        <path id="Shape-85" data-name="Shape" d="M0,0A109.257,109.257,0,0,1,41.722,8.277a109.06,109.06,0,0,1,35.37,23.573,108.74,108.74,0,0,1,23.634,35.278,108.481,108.481,0,0,1,0,83.227,108.74,108.74,0,0,1-23.634,35.278,109.06,109.06,0,0,1-35.37,23.573A109.257,109.257,0,0,1,0,217.485Z" transform="translate(1480.975 852.259)" fill="#7fdc8a"/>
        <path id="Shape-86" data-name="Shape" d="M0,109.037A108.693,108.693,0,0,1,209.185,67.31a109.294,109.294,0,0,1,8.277,41.727Z" transform="translate(1350.145 720.825)" fill="#fb8998"/>
        <path id="Shape-87" data-name="Shape" d="M0,0H109.025V109.037a109,109,0,0,1-41.722-8.3A109.04,109.04,0,0,1,31.933,77.1,109.054,109.054,0,0,1,8.3,41.726,109.034,109.034,0,0,1,0,0Z" transform="translate(1350.734 960.707)" fill="#7fdc8a"/>
        <path id="Shape-88" data-name="Shape" d="M0,109.037V0H109.025a109.034,109.034,0,0,1-8.3,41.726A109.054,109.054,0,0,1,77.092,77.1a109.04,109.04,0,0,1-35.37,23.637A109,109,0,0,1,0,109.037Z" transform="translate(980.638 1090.963)" fill="#fb8998"/>
        <path id="Shape-89" data-name="Shape" d="M109.025,109.037H0V0A109,109,0,0,1,41.722,8.3a109.04,109.04,0,0,1,35.37,23.637,109.054,109.054,0,0,1,23.634,35.374A109.034,109.034,0,0,1,109.025,109.037Z" transform="translate(1241.119 829.862)" fill="#fb8998"/>
        <path id="Shape-90" data-name="Shape" d="M109.025,109.037H0V0A109.011,109.011,0,0,1,41.722,8.3a109.029,109.029,0,0,1,35.37,23.636A109.045,109.045,0,0,1,100.726,67.31,109.037,109.037,0,0,1,109.025,109.037Z" transform="translate(980.638 612.377)" fill="#a157ff"/>
        <path id="Shape-91" data-name="Shape" d="M54.513,109.037A54.516,54.516,0,0,1,0,54.519V0H109.025V54.519A54.516,54.516,0,0,1,54.513,109.037Z" transform="translate(1480.975 612.377)" fill="#7fdc8a"/>
        <path id="Shape-92" data-name="Shape" d="M109.025,54.519a54.516,54.516,0,0,1-54.513,54.519H0V0H54.513A54.516,54.516,0,0,1,109.025,54.519Z" transform="translate(1110.878 1090.963)" fill="#a157ff"/>
        <path id="Shape-93" data-name="Shape" d="M109.025,54.519a54.516,54.516,0,0,1-54.513,54.519H0V0H54.513A54.516,54.516,0,0,1,109.025,54.519Z" transform="translate(980.638 960.707)" fill="#7fdc8a"/>
        <path id="Shape-94" data-name="Shape" d="M43.315,86.64A43.32,43.32,0,1,1,86.631,43.32,43.318,43.318,0,0,1,43.315,86.64Z" transform="translate(1372.539 851.67)" fill="#f5d800"/>
        <path id="Shape-95" data-name="Shape" d="M43.315,86.64A43.32,43.32,0,1,1,86.631,43.32,43.318,43.318,0,0,1,43.315,86.64Z" transform="translate(980.638 742.633)" fill="#f5d800"/>
      </g>
    </g>
  </g>
</svg>
