<svg width="512" height="512" viewBox="0 0 512 512" fill="none" xmlns="http://www.w3.org/2000/svg">
<g id="person-square">
<path id="Vector" d="M464 32H48C21.49 32 0 53.492 0 80V432C0 458.508 21.49 480 48 480H464C490.51 480 512 458.508 512 432V80C512 53.492 490.51 32 464 32ZM256.014 128C291.359 128 320.014 156.656 320.014 192C320.014 227.344 291.359 256 256.014 256C220.669 256 192.014 227.344 192.014 192C192.014 156.656 220.668 128 256.014 128ZM352.014 384H160.014C151.178 384 144.014 376.836 144.014 368C144.014 323.816 179.83 288 224.014 288H288.014C332.197 288 368.014 323.816 368.014 368C368.014 376.836 360.85 384 352.014 384Z" fill="#575DB2"/>
<path id="Vector_2" d="M256 256C291.346 256 320 227.344 320 192C320 156.656 291.346 128 256 128C220.654 128 192 156.656 192 192C192 227.344 220.654 256 256 256ZM288 288H224C179.816 288 144 323.816 144 368C144 376.836 151.164 384 160 384H352C360.836 384 368 376.836 368 368C368 323.816 332.184 288 288 288Z" fill="#191C38"/>
</g>
</svg>
